<svg width="514" height="129" viewBox="0 0 514 129" fill="none" xmlns="http://www.w3.org/2000/svg">
<g clip-path="url(#clip0_418_104)">
<path d="M489 11.815C489 5.08059 494.148 0 500.748 0C507.348 0 512.63 5.08059 512.63 11.815C512.63 18.5494 507.482 23.63 500.748 23.63C494.148 23.6523 489 18.5494 489 11.815Z" fill="black"/>
<path d="M0.392822 35.407H20.1481V46.5925C24.0912 39.7822 32.4096 33.7732 42.9196 33.7732C60.3655 33.7732 73.986 46.7182 73.986 70.2909V71.3749C73.986 94.9476 60.6404 108.168 42.9196 108.168C31.8834 108.168 23.8399 102.716 20.1481 95.7724V130.931H0.392822V35.407ZM53.9558 71.5241V70.4402C53.9558 55.987 46.8706 48.9018 36.9184 48.9018C26.9662 48.9018 19.4725 56.1206 19.4725 70.4402V71.5241C19.4725 85.828 26.2828 92.7875 37.0441 92.7875C47.8054 92.7875 53.9558 85.4274 53.9558 71.5241Z" fill="black"/>
<path d="M510.63 35H491V106.276H510.63V35Z" fill="black"/>
<path d="M444.065 85.5453V49.4281H434.937V35.3835H444.065V19.9956H463.694V35.3992H478.674V49.4439H463.694V83.7779C463.694 89.5042 466.561 92.222 471.588 92.222C474.581 92.222 476.765 91.8214 479.082 90.8631V106.117C476.364 107.076 472.398 108.026 467.095 108.026C452.116 108.026 444.073 100.383 444.073 85.5295L444.065 85.5453Z" fill="black"/>
<path d="M383.503 35.4071H403.258V49.0276C407.759 39.476 414.695 34.4488 426.281 34.2996V52.6959C411.702 52.5702 403.258 57.3225 403.258 70.9665V106.683H383.503V35.4071Z" fill="black"/>
<path d="M298.999 71.9248V70.8408C298.999 48.3442 314.937 33.7654 335.666 33.7654C354.062 33.7654 370.424 44.5267 370.424 70.0082V75.4595H319.053C319.603 87.3205 326.012 94.1308 336.774 94.1308C345.901 94.1308 350.394 90.1876 351.627 84.1785H370.299C367.989 99.5821 355.72 108.16 336.216 108.16C314.654 108.16 298.999 94.6885 298.999 71.9169V71.9248ZM351.203 63.3315C350.528 52.5702 345.069 47.3937 335.674 47.3937C326.806 47.3937 320.82 53.2535 319.312 63.3315H351.203Z" fill="black"/>
<path d="M216.004 35.407H235.759V46.5925C239.702 39.7822 248.02 33.7732 258.53 33.7732C275.976 33.7732 289.597 46.7182 289.597 70.2909V71.3749C289.597 94.9476 276.251 108.168 258.53 108.168C247.494 108.168 239.451 102.716 235.759 95.7724V130.931H216.004V35.407ZM269.567 71.5241V70.4402C269.567 55.987 262.481 48.9018 252.529 48.9018C242.577 48.9018 235.083 56.1206 235.083 70.4402V71.5241C235.083 85.828 241.894 92.7875 252.655 92.7875C263.416 92.7875 269.567 85.4274 269.567 71.5241Z" fill="black"/>
<path d="M131.641 71.7992V70.7152C131.641 48.3679 147.854 33.7891 169.267 33.7891C190.679 33.7891 206.743 48.0929 206.743 70.3068V71.3908C206.743 93.8874 190.53 108.183 169.117 108.183C147.854 108.16 131.641 93.9895 131.641 71.7914V71.7992ZM186.689 71.5243V70.566C186.689 56.9455 180.279 48.7528 169.243 48.7528C158.207 48.7528 151.797 56.647 151.797 70.2911V71.3751C151.797 84.9956 158.058 93.1883 169.243 93.1883C180.279 93.1883 186.689 85.0191 186.689 71.5243Z" fill="black"/>
<path d="M84.0246 35.4071H103.78V49.0276C108.281 39.476 115.24 34.4488 126.803 34.2996V52.6959C112.224 52.5702 103.78 57.3225 103.78 70.9665V106.683H84.0246V35.4071Z" fill="black"/>
</g>
<defs>
<clipPath id="clip0_418_104">
<rect width="514" height="129" fill="white"/>
</clipPath>
</defs>
</svg>
